<svg width="142" height="150" viewBox="0 0 142 150" fill="none" xmlns="http://www.w3.org/2000/svg">
<path d="M22.8263 81.6324L9.69599 74.0515L22.7767 70.5466L33.1428 76.5314C33.886 80.032 34.6697 86.6163 35.6646 88.1231C36.6478 89.6122 36.6478 89.6122 38.721 90.8091L84.3316 117.142C86.4048 118.339 87.9826 117.203 86.8038 117.648L97.4124 113.637L107.778 119.622L111.283 132.703L98.153 125.122L90.4157 128.948L90.9712 137.562L104.102 145.142L90.6219 149.338L80.2558 143.354C79.6455 139.623 78.4621 132.735 77.4419 130.672C77.2551 130.294 77.1498 129.582 75.7677 128.784L30.157 102.45C28.7749 101.652 25.6303 102.601 26.5947 102.237L15.9862 106.247L5.62015 100.263L2.51418 86.4908L15.6445 94.0716L22.6908 89.8469L22.8263 81.6324Z" fill="#E3E54C" fill-opacity="0.45"/>
<path d="M20.9537 35.4012C16.3013 35.4794 9.25508 39.7041 -1.14441e-05 50.9465L27.3508 65.816C28.3791 64.5668 29.8402 62.4618 33.4139 60.1022C37.0831 58.5349 40.6453 58.7487 43.1175 59.2546C45.5897 59.7605 48.5411 62.0735 50.3203 64.3346C52.9777 67.7117 52.9178 72.2842 52.9491 74.1451C52.9804 76.0061 51.5383 79.7806 51.5383 79.7806L86.7829 100.129C87.9442 98.6496 93.282 94.2985 95.0261 93.8312C97.2062 93.247 97.6052 92.556 101.859 93.1688C106.112 93.7816 109.506 96.6533 111.135 99.4457C112.763 102.238 112.55 107.634 112.381 108.458L111.661 114.493L137.231 129.255C138.59 120.518 141.521 99.482 141.521 99.482C141.521 99.482 141.92 98.791 140.245 96.9029C138.571 95.0149 135.7 95.2001 131.767 89.2439C129.801 86.2658 129.324 82.3044 129.937 78.0512C130.182 76.3497 124.943 65.9537 123.56 65.1557C122.455 64.5173 114.515 59.0117 112.211 57.6817C107.409 54.2951 100.426 50.3247 93.1534 47.6001C84.0625 44.1944 84.3546 45.2845 78.6122 45.6548C69.9987 46.2103 62.3683 48.2548 62.3683 48.2548C62.3683 48.2548 52.8785 45.5401 42.1134 40.2463C32.0883 35.3164 25.606 35.3229 20.9537 35.4012Z" fill="#E3E54C" fill-opacity="0.45"/>
<path d="M46.2885 36.2069L30.18 30.5924L48.0277 1.2753L50.6068 7.09425e-05L54.169 0.213889L71.4458 10.1886L73.4121 13.1667L73.1983 16.729L58.8347 41.6075L46.2885 36.2069Z" fill="#E3E54C" fill-opacity="0.45"/>
</svg>
