<svg width="648" height="287" viewBox="0 0 648 287" fill="none" xmlns="http://www.w3.org/2000/svg">
<path d="M440.052 99L434 92.1728H440.052C439.548 91.0349 438.539 87.9626 438.539 84.7766C438.942 76.5839 441.397 74.9151 442.574 75.1047C459.922 74.1944 466.781 79.4665 469.303 81.363C471.824 83.6388 472.329 84.587 471.824 85.9145C470.648 88.7592 467.689 94.9037 465.268 96.7243C462.847 98.5449 455.182 99 451.651 99H440.052Z" fill="#B2BBC6"/>
<path d="M193.948 99L200 92.1728H193.948C194.452 91.0349 195.461 87.9626 195.461 84.7766C195.058 76.5839 192.603 74.9151 191.426 75.1047C174.078 74.1944 167.219 79.4665 164.697 81.363C162.176 83.6388 161.671 84.587 162.176 85.9145C163.352 88.7592 166.311 94.9037 168.732 96.7243C171.153 98.5449 178.818 99 182.349 99H193.948Z" fill="#B2BBC6"/>
<path d="M356.5 42C364.167 42.5 380.9 43.7 386.5 44.5C393.5 45.5 399 46.5 404 49C408 51 431.833 83.6667 442.5 99C447 100 457 101.3 465 106.5C473 111.7 477.5 121 477.5 124V174.5L465 201.5L453 203.5L445 205.5L391 215H242L187.5 205.5L180.5 204L168 202L154.5 174V124C154.5 120 161.6 110.439 168 106.5C174.5 102.5 187.5 100.5 192.5 99C202.333 82.7145 227 50 229 49C233 46.6667 249.5 42 283.5 42H356.5ZM240.5 200.5L247 207H385L392 200.5L379.5 185.5H252.5L240.5 200.5ZM188.5 126.5C186.505 125.503 180.529 129.48 180.5 129.5C180.5 129.5 174.028 132.945 169.5 142C167 147 167.5 146 166.5 150.5C165.5 155 165.516 158.52 166.5 163.5C167.906 170.611 171.4 176.8 175 180C178.6 183.2 181.833 184 183 184L229 191L254 162H377.5L401.5 190L448 184C448.033 183.988 452.903 182.258 456 180C462.008 175.62 464.58 167 465.5 163.5C466.42 160 467 154.5 466.5 150.5C466.034 146.773 464.5 143.5 463.5 142C462.5 140.5 458.5 133.5 451 129.5C443.5 125.5 443.5 126.5 442.5 126.5C441.501 126.5 377.606 154.454 377.5 154.5H254C253.898 154.457 190.498 127.499 188.5 126.5ZM267 53C255.667 53.1667 232.7 54.1 231.5 56.5C230.3 58.9 212 87.1667 203 101L262 143L214 101C227.5 102 256 104 262 104H367C382.167 103 413.6 101 418 101C422.4 101 387.167 129 369 143L431 101L401.5 57C398.333 55.5 384.9 52.5 356.5 52.5H295.5L267 53Z" fill="#E2EDFA"/>
<path d="M408 155.347C408 155.347 440.539 141.057 441.048 141.057C441.556 141.057 441.556 140.546 445.369 142.588C449.183 144.629 451.216 148.202 451.725 148.967C452.233 149.733 453.013 151.403 453.25 153.305C453.504 155.347 453.209 158.154 452.742 159.94C452.274 161.726 450.966 166.125 447.912 168.361C446.331 169.517 443.844 170.402 443.844 170.402L420.202 173.465L408 159.175V155.347Z" fill="#B8C6D7"/>
<path d="M223.866 158.2L211.155 173L187.767 169.428C187.174 169.428 185.53 169.019 183.7 167.386C181.87 165.753 180.093 162.594 179.378 158.965C178.878 156.423 178.87 154.627 179.378 152.33C179.887 150.034 179.633 150.544 180.904 147.992C183.206 143.371 186.496 141.613 186.496 141.613C186.496 141.613 189.547 139.572 190.564 140.082C191.581 140.592 223.866 154.372 223.866 154.372V158.2Z" fill="#B8C6D7"/>
<path d="M154 220.224V193L165 209.716L198 214.493V222.134L194.5 225H158.5L154 220.224Z" fill="#8895A5"/>
<path d="M478 220.224V193L467 209.716L434 214.493V222.134L437.5 225H473.5L478 220.224Z" fill="#8895A5"/>
<line x1="45" y1="156" x2="143" y2="156" stroke="black" stroke-width="2" stroke-linecap="round"/>
<line x1="485" y1="156" x2="583" y2="156" stroke="black" stroke-width="2" stroke-linecap="round"/>
<line x1="45" y1="156" x2="143" y2="156" stroke="#E9F0FF" stroke-width="2" stroke-linecap="round"/>
<line x1="485" y1="156" x2="583" y2="156" stroke="#E9F0FF" stroke-width="2" stroke-linecap="round"/>
<line x1="87" y1="128" x2="145" y2="128" stroke="#A0AFC0" stroke-width="2" stroke-linecap="round"/>
<line x1="487" y1="128" x2="545" y2="128" stroke="#A0AFC0" stroke-width="2" stroke-linecap="round"/>
<line x1="46.9982" y1="239.989" x2="584.998" y2="239.002" stroke="#546578" stroke-width="2" stroke-linecap="round"/>
<line x1="46.9982" y1="25.9889" x2="584.998" y2="25.0017" stroke="#546578" stroke-width="2" stroke-linecap="round"/>
<line x1="2" y1="127.016" x2="2" y2="3.01611" stroke="#5E6E81" stroke-width="4" stroke-linecap="round"/>
<line x1="642" y1="284.017" x2="518" y2="284.017" stroke="#5E6E81" stroke-width="4" stroke-linecap="round"/>
<line x1="126" y1="284.017" x2="2.00005" y2="284.017" stroke="#5E6E81" stroke-width="4" stroke-linecap="round"/>
<line x1="645.999" y1="127" x2="645.999" y2="3.00005" stroke="#5E6E81" stroke-width="4" stroke-linecap="round"/>
<line x1="126" y1="3" x2="2" y2="3" stroke="#5E6E81" stroke-width="4" stroke-linecap="round"/>
<line x1="642.001" y1="159" x2="642.001" y2="283" stroke="#5E6E81" stroke-width="4" stroke-linecap="round"/>
<line x1="2" y1="159" x2="2" y2="283" stroke="#5E6E81" stroke-width="4" stroke-linecap="round"/>
<line x1="522" y1="2" x2="646" y2="2" stroke="#5E6E81" stroke-width="4" stroke-linecap="round"/>
</svg>
