<svg width="155" height="160" viewBox="0 0 155 160" fill="none" xmlns="http://www.w3.org/2000/svg">
<path d="M57.2514 7.74847C59.5947 3.68983 64.779 2.29612 68.831 4.63553L79.1024 10.5657C83.1544 12.9052 84.5396 18.0918 82.1963 22.1504L65.225 51.5457C62.8817 55.6043 57.6974 56.998 53.6454 54.6586L43.374 48.7284C39.322 46.389 37.9368 41.2023 40.2801 37.1437L57.2514 7.74847Z" fill="#83D7C9"/>
<path d="M124.749 46.7185C127.093 42.6598 132.277 41.2661 136.329 43.6055L146.6 49.5357C150.652 51.8751 152.038 57.0618 149.694 61.1204L132.723 90.5157C130.38 94.5743 125.195 95.968 121.143 93.6286L110.872 87.6984C106.82 85.359 105.435 80.1723 107.778 76.1137L124.749 46.7185Z" fill="#83D7C9"/>
<path d="M89.1096 108.448C91.4529 104.39 96.6372 102.996 100.689 105.336L110.961 111.266C115.013 113.605 116.398 118.792 114.055 122.85L97.0832 152.246C94.7399 156.304 89.5556 157.698 85.5036 155.359L75.2322 149.428C71.1802 147.089 69.795 141.902 72.1383 137.844L89.1096 108.448Z" fill="#83D7C9"/>
<path d="M21.6116 69.4785C23.9549 65.4198 29.1392 64.0261 33.1912 66.3655L43.4626 72.2957C47.5146 74.6351 48.8998 79.8218 46.5565 83.8804L29.5852 113.276C27.2419 117.334 22.0576 118.728 18.0056 116.389L7.73416 110.458C3.68219 108.119 2.29701 102.932 4.64026 98.8737L21.6116 69.4785Z" fill="#83D7C9"/>
<path d="M105.586 52.8015C102.657 57.8748 96.1762 59.6169 91.1112 56.6927C86.0463 53.7684 84.3148 47.2851 87.2438 42.2118C90.1729 37.1385 96.6534 35.3964 101.718 38.3206C106.783 41.2449 108.515 47.7282 105.586 52.8015Z" fill="#83D7C9"/>
<path d="M64.9689 80.7931C67.3122 76.7344 72.4966 75.3407 76.5485 77.6801L79.4832 79.3745C83.5352 81.7139 84.9204 86.9005 82.5771 90.9591L78.3343 98.3079C75.991 102.367 70.8067 103.76 66.7547 101.421L63.82 99.7265C59.768 97.3871 58.3829 92.2005 60.7261 88.1419L64.9689 80.7931Z" fill="#83D7C9"/>
<path d="M39.3437 96.3734L81.8968 120.941M75.1957 34.276L117.749 58.844M95.7783 48.609L61.4114 108.134M43.374 48.7284L53.6454 54.6586C57.6974 56.998 62.8817 55.6043 65.225 51.5457L82.1963 22.1504C84.5396 18.0918 83.1544 12.9052 79.1024 10.5657L68.831 4.63553C64.779 2.29612 59.5947 3.68983 57.2514 7.74847L40.2801 37.1437C37.9368 41.2023 39.322 46.389 43.374 48.7284ZM110.872 87.6984L121.143 93.6286C125.195 95.968 130.38 94.5743 132.723 90.5157L149.694 61.1204C152.038 57.0618 150.652 51.8751 146.6 49.5357L136.329 43.6055C132.277 41.2661 127.093 42.6598 124.749 46.7185L107.778 76.1137C105.435 80.1723 106.82 85.359 110.872 87.6984ZM75.2322 149.428L85.5036 155.359C89.5556 157.698 94.7399 156.304 97.0832 152.246L114.055 122.85C116.398 118.792 115.013 113.605 110.961 111.266L100.689 105.336C96.6372 102.996 91.4529 104.39 89.1096 108.448L72.1383 137.844C69.795 141.902 71.1802 147.089 75.2322 149.428ZM7.73416 110.458L18.0056 116.389C22.0576 118.728 27.2419 117.334 29.5852 113.276L46.5565 83.8804C48.8998 79.8218 47.5146 74.6351 43.4626 72.2957L33.1912 66.3655C29.1392 64.0261 23.9549 65.4198 21.6116 69.4785L4.64026 98.8737C2.29701 102.932 3.68219 108.119 7.73416 110.458ZM105.586 52.8015C102.657 57.8748 96.1762 59.6169 91.1112 56.6927C86.0463 53.7684 84.3148 47.2851 87.2438 42.2118C90.1729 37.1385 96.6534 35.3964 101.718 38.3206C106.783 41.2449 108.515 47.7282 105.586 52.8015ZM63.82 99.7265L66.7547 101.421C70.8067 103.76 75.991 102.367 78.3343 98.3079L82.5771 90.9591C84.9204 86.9005 83.5352 81.7139 79.4832 79.3745L76.5485 77.6801C72.4966 75.3407 67.3122 76.7344 64.9689 80.7931L60.7261 88.1419C58.3829 92.2005 59.768 97.3871 63.82 99.7265Z" stroke="#83D7C9" stroke-width="7"/>
</svg>
