<svg width="150" height="150" viewBox="0 0 150 150" fill="none" xmlns="http://www.w3.org/2000/svg">
<path d="M69.4146 74.4848L53.2004 46.9852L50.6436 48.9971L39.4665 68.3564L38.4793 71.2746L38.0153 74.4949L38.0746 78.0172L39.6226 83.7944L22.453 85.7413L24.0819 90.1699L24.0603 95.0408L45.2754 93.3367L48.474 98.6716L52.1958 104.309L69.4146 74.4848Z" fill="#D1E5FF"/>
<path d="M77.7862 79.3181L109.709 79.6102L109.245 82.8304L98.0676 102.19L96.0339 104.504L93.4771 106.516L90.397 108.226L84.6198 109.774L91.5185 125.616L86.8688 126.42L82.6613 128.874L73.5295 109.649L67.3101 109.547L60.5674 109.142L77.7862 79.3181Z" fill="#D1E5FF"/>
<path d="M125.579 55.5791L103.215 57.0248L107.821 65.963L126.579 63.5791L126.059 59.7493L125.579 55.5791Z" fill="#D1E5FF"/>
<path d="M66.7349 20.6037L76.309 41.4792L66.2652 41.959L58.4009 24.1636L62.5275 23.0579L66.7349 20.6037Z" fill="#D1E5FF"/>
<path d="M68.4665 18.1269C65.1298 23.9063 57.7397 25.8864 51.9604 22.5497C46.181 19.213 44.2008 11.8229 47.5376 6.04358C50.8743 0.264206 58.2643 -1.71595 64.0437 1.62077C69.8231 4.95749 71.8032 12.3475 68.4665 18.1269Z" fill="#D1E5FF"/>
<path d="M148.002 64.0852C144.665 69.8646 137.275 71.8448 131.496 68.5081C125.717 65.1713 123.736 57.7813 127.073 52.0019C130.41 46.2225 137.8 44.2424 143.579 47.5791C149.359 50.9158 151.339 58.3059 148.002 64.0852Z" fill="#D1E5FF"/>
<path d="M102.08 143.574C98.7431 149.353 91.3531 151.333 85.5737 147.996C79.7943 144.66 77.8142 137.27 81.1509 131.49C84.4876 125.711 91.8777 123.731 97.657 127.067C103.436 130.404 105.417 137.794 102.08 143.574Z" fill="#D1E5FF"/>
<path d="M22.5498 97.6569C19.2131 103.436 11.8231 105.416 6.0437 102.08C0.264328 98.743 -1.71583 91.3529 1.62089 85.5736C4.95761 79.7942 12.3477 77.814 18.127 81.1508C23.9064 84.4875 25.8866 91.8775 22.5498 97.6569Z" fill="#D1E5FF"/>
<path d="M79.0061 40.9551L62.4407 41.8556L77.8295 69.5763L110.054 69.3451L103.215 57.0248L99.0505 49.7372L96.303 46.7557L92.6316 43.9384L89.7134 42.9512L84.9235 41.581L79.0061 40.9551Z" fill="#D1E5FF"/>
</svg>
