<svg width="167" height="155" viewBox="0 0 167 155" fill="none" xmlns="http://www.w3.org/2000/svg">
<path d="M54.3383 71.7866C56.0824 72.7936 73.5967 82.9055 82.1359 87.8356" stroke="#8E03BD" stroke-width="4"/>
<path d="M26.5014 59.5819L33.5871 63.6729L26.6272 75.7277L19.5415 71.6368L10.0508 88.0752L1.87503 83.3549L27.5 38.9712L35.6758 43.6915L26.5014 59.5819Z" fill="#ECD1F5" stroke="#ECD1F5"/>
<path d="M143.476 108.095L133.665 102.431L118.04 129.494L123.234 132.493L127.851 135.158L143.476 108.095Z" fill="#ECD1F5" stroke="#ECD1F5"/>
<path d="M19.2844 88.4455L38.1234 55.8155L51.282 63.4127L66.5479 63.5614L71.8088 54.4492L123.347 84.2047L118.086 93.3168L134.534 102.813L118.751 130.15L88.7304 137.831L39.9338 109.658L32.4431 96.0426L19.2844 88.4455Z" fill="#ECD1F5" stroke="#ECD1F5"/>
<path d="M88.8337 25.8847C89.6622 24.4498 91.4969 23.9582 92.9318 24.7866L134.834 48.9789C136.747 50.0835 137.403 52.5299 136.298 54.443L126.548 71.3305C125.444 73.2437 122.997 73.8992 121.084 72.7946L80.0479 49.1023C78.1347 47.9977 77.4792 45.5514 78.5838 43.6382L88.8337 25.8847Z" fill="#ECD1F5"/>
<rect x="86.3948" y="52.7666" width="7.55245" height="8.74999" transform="rotate(30 86.3948 52.7666)" fill="#ECD1F5"/>
<rect x="107.107" y="64.7246" width="7.55245" height="8.74999" transform="rotate(30 107.107 64.7246)" fill="#ECD1F5"/>
</svg>
