<svg width="174" height="98" viewBox="0 0 174 98" fill="none" xmlns="http://www.w3.org/2000/svg">
<path d="M152.144 30.3168L148.925 26.6856H152.144C151.876 26.0803 151.339 24.4463 151.339 22.7517C151.554 18.3942 152.86 17.5066 153.485 17.6074C162.713 17.1233 166.361 19.9274 167.702 20.9361C169.043 22.1465 169.311 22.6508 169.043 23.3569C168.417 24.8699 166.844 28.1381 165.556 29.1064C164.269 30.0747 160.191 30.3168 158.314 30.3168H152.144Z" fill="#B2BBC6"/>
<path d="M21.2474 30.3168L24.4662 26.6856H21.2474C21.5156 26.0803 22.0521 24.4463 22.0521 22.7517C21.8375 18.3942 20.5321 17.5066 19.9062 17.6074C10.6788 17.1233 7.03075 19.9274 5.68956 20.9361C4.34835 22.1465 4.08012 22.6508 4.34835 23.3569C4.97424 24.8699 6.54791 28.1381 7.83545 29.1064C9.123 30.0747 13.2002 30.3168 15.0779 30.3168H21.2474Z" fill="#B2BBC6"/>
<path d="M108.747 0C112.864 0.268522 121.85 0.913157 124.857 1.34277C128.617 1.87979 131.571 2.41628 134.256 3.75879C136.404 4.83286 149.203 22.3768 154.932 30.6113C157.348 31.1484 162.719 31.8461 167.016 34.6387C171.312 37.4313 173.729 42.426 173.729 44.0371V71.1572L167.016 85.6572L160.571 86.7314L156.274 87.8057L127.274 92.9072H47.2559L17.9873 87.8057L14.2285 87L7.51562 85.9258L0.265625 70.8887V44.0371C0.265625 41.889 4.07833 36.7539 7.51562 34.6387C11.0065 32.4907 17.9878 31.4169 20.6729 30.6113C25.9537 21.8654 39.2003 4.29583 40.2744 3.75879C42.4228 2.50568 51.284 1.05052e-06 69.543 0H108.747ZM46.4502 85.1201L49.9414 88.6104H124.053L127.812 85.1201L121.099 77.0645H52.8945L46.4502 85.1201ZM18.5244 45.3799C17.4504 44.8428 14.2275 46.9912 14.2275 46.9912C14.1803 47.0165 10.7351 48.8745 8.32031 53.7041C6.97793 56.3889 7.246 55.8518 6.70898 58.2686C6.17197 60.6853 6.1803 62.5754 6.70898 65.25C7.46386 69.0688 9.34108 72.3928 11.2744 74.1113C13.2074 75.8296 14.9436 76.2597 15.5703 76.2598L40.2744 80.0186L53.7002 64.4443H120.024L132.913 79.4814L157.886 76.2598C157.909 76.2514 160.52 75.3227 162.182 74.1113C165.408 71.7589 166.789 67.1297 167.283 65.25C167.777 63.3703 168.089 60.4167 167.82 58.2686C167.57 56.2675 166.747 54.5099 166.21 53.7041C165.673 52.8985 163.524 49.1393 159.496 46.9912C155.468 44.8432 155.469 45.3797 154.932 45.3799C154.391 45.3817 120.046 60.4077 120.024 60.417H53.7002C53.7002 60.417 19.6025 45.9186 18.5244 45.3799ZM60.6826 5.90723C54.5962 5.99673 42.2616 6.49822 41.6172 7.78711C40.9716 9.07771 31.1446 24.256 26.3115 31.6846L57.9971 54.2402L32.2197 31.6846C39.4699 32.2216 54.7749 33.2959 57.9971 33.2959H114.386C122.531 32.7589 139.412 31.6846 141.775 31.6846C144.135 31.6866 125.216 46.7222 115.46 54.2402L148.757 31.6846L132.914 8.05566C131.213 7.25011 123.999 5.63867 108.747 5.63867H75.9883L60.6826 5.90723Z" fill="#E2EDFA"/>
<path d="M135.097 60.2865C135.097 60.2865 152.404 52.6861 152.674 52.686C152.944 52.6859 152.944 52.4145 154.973 53.5003C157.001 54.5861 158.082 56.4862 158.353 56.8934C158.623 57.3005 159.038 58.189 159.164 59.2007C159.299 60.2865 159.142 61.7794 158.894 62.7295C158.645 63.6796 157.949 66.0193 156.325 67.2084C155.484 67.8235 154.161 68.2942 154.161 68.2942L141.587 69.9229L135.097 62.3224V60.2865Z" fill="#B8C6D7"/>
<path d="M37.16 61.804L30.3994 69.676L17.9601 67.7758C17.6446 67.7758 16.7702 67.5587 15.7967 66.69C14.8232 65.8213 13.8782 64.1413 13.4981 62.2111C13.2319 60.8592 13.2277 59.9039 13.4981 58.6823C13.7685 57.4607 13.6333 57.7322 14.3094 56.375C15.5338 53.9169 17.284 52.9819 17.284 52.9819C17.284 52.9819 18.9066 51.8961 19.4474 52.1676C19.9882 52.4391 37.16 59.7681 37.16 59.7681V61.804Z" fill="#B8C6D7"/>
<path d="M0 94.7932V80.3135L5.85066 89.2046L23.4026 91.7449V95.8093L21.5411 97.3335H2.39345L0 94.7932Z" fill="#8895A5"/>
<path d="M172.328 94.7932V80.3135L166.477 89.2046L148.925 91.7449V95.8093L150.787 97.3335H169.935L172.328 94.7932Z" fill="#8895A5"/>
</svg>
